Coordinates
version=1
nRows=8
nColumns=33
inDegrees=yes

Units are S.I. units (second, meters, Newtons, ...)
Angles are in degrees.

endheader
time	ground_thorax_rot_x	ground_thorax_rot_y	ground_thorax_rot_z	ground_thorax_tx	ground_thorax_ty	ground_thorax_tz	clav_prot_r	clav_elev_r	scapula_abduction_r	scapula_elevation_r	scapula_upward_rot_r	scapula_winging_r	shoulder_elv_r	plane_of_elev_r	axial_rot_r	elbow_flexion_r	pro_sup_r	wrist_flex_r	wrist_dev_r	clav_prot_l	clav_elev_l	scapula_abduction_l	scapula_elevation_l	scapula_upward_rot_l	scapula_winging_l	shoulder_elv_l	plane_of_elev_l	axial_rot_l	elbow_flexion_l	pro_sup_l	wrist_flex_l	wrist_dev_l
      7.41000000	    -41.05298069	     -6.16971518	      0.23282968	    -46.79766877	    806.77689014	      9.92344310	      4.89626811	    -45.00000000	     45.00000000	    -45.00000000	     -8.54988409	  -3690.05933306	   -116.77124816	    150.85566930	   -105.17084814	   1810.64728130	     15.72111598	     17.32038150	     10.02059598	     15.82595964	     41.62828695	    -45.00000000	    -40.39380804	    -25.19155490	   2599.46492872	  -3701.38696185	    135.96645471	    178.73546400	   1086.62452737	     30.70394604	     10.21882222	    -19.55465833
      7.42000000	    -40.78232119	     -6.41971129	      0.54662690	    -46.20703489	    805.28816307	      9.92202140	      5.40849814	    -45.00000000	     45.00000000	    -45.00000000	     -9.21092064	  -3689.96693395	   -116.80456997	    150.89177276	   -105.40035042	   1810.46845820	     16.45392695	     17.19760853	      9.95672212	     15.56770381	     41.23210379	    -45.00000000	    -40.11632642	    -25.57329232	   2599.48167083	  -3701.36726846	    135.89461483	    178.98230157	   1086.44503404	     30.02975623	     10.39582849	    -19.47189906
      7.43000000	    -40.48386737	     -6.50367948	      0.65263760	    -45.99440333	    804.01678101	      9.82237774	      5.41860565	    -45.00000000	     45.00000000	    -45.00000000	     -9.52517386	  -3689.89557065	   -116.78004369	    150.90074200	   -105.31667144	   1810.29972547	     16.63019249	     17.03741534	     10.07653554	     15.59021881	     40.63729615	    -45.00000000	    -39.82871336	    -25.51894842	   2599.54882757	  -3701.47578092	    135.85478457	    179.30373993	   1086.19878856	     29.51976880	     10.52217953	    -19.44912555
      7.44000000	    -40.19327352	     -6.57448005	      0.79089818	    -46.14071098	    802.91766138	      9.62888431	      5.42765429	    -45.00000000	     45.00000000	    -45.00000000	     -9.73612496	  -3689.91658642	   -116.73058647	    151.00897066	   -105.17065673	   1810.18740388	     16.49189394	     16.97625307	     10.28168717	     15.55598978	     40.50938758	    -45.00000000	    -39.54086633	    -25.40812269	   2599.68005132	  -3701.67526450	    135.88624876	    179.41198477	   1086.05707503	     28.95294207	     10.45955707	    -19.39332905
      7.45000000	    -39.96561002	     -6.57224539	      0.87906261	    -46.62729954	    801.95845384	      9.35034295	      5.44406368	    -45.00000000	     45.00000000	    -45.00000000	     -9.85231347	  -3690.11575759	   -116.75469871	    151.10030477	   -105.04355207	   1810.14982295	     16.16732033	     16.97385382	     10.39093346	     15.50172674	     40.43942885	    -45.00000000	    -39.28463739	    -25.33924902	   2599.81475892	  -3701.71243173	    135.91453888	    179.46135380	   1085.94936584	     28.31454683	     10.54884877	    -19.40690987
      7.46000000	    -39.78701984	     -6.57715510	      0.91062276	    -47.43417745	    801.10429106	      8.99803050	      5.45985858	    -45.00000000	     45.00000000	    -45.00000000	     -9.98154613	  -3690.19786933	   -116.83143366	    151.21252729	   -104.80821132	   1809.95879141	     15.77614236	     16.94901319	     10.52789450	     15.46070377	     40.46519064	    -45.00000000	    -39.16093762	    -25.33427148	   2599.93744515	  -3701.78130554	    135.96790425	    179.43227225	   1085.80487655	     27.54562228	     10.61137093	    -19.39091112
      7.47000000	    -39.60959392	     -6.53840465	      0.94522601	    -48.54570613	    800.32402884	      8.58427450	      5.49383454	    -45.00000000	     45.00000000	    -45.00000000	    -10.20263784	  -3690.32407797	   -116.86739335	    151.26268251	   -104.55705885	   1809.82337218	     15.35088485	     16.97625916	     10.66101420	     15.44447702	     40.35625494	    -45.00000000	    -39.07876923	    -25.34323721	   2600.04575630	  -3701.87764751	    135.99233474	    179.31452490	   1085.64866060	     26.63960639	     10.79458591	    -19.41293099
      7.48000000	    -39.44572192	     -6.56977846	      1.01708514	    -49.94308233	    799.59782935	      8.12414484	      5.54986726	    -45.00000000	     45.00000000	    -45.00000000	    -10.44582290	  -3690.48359477	   -116.87062064	    151.35110287	   -104.23951028	   1809.74121589	     14.96951958	     17.02987295	     10.79294256	     15.39350087	     40.30174506	    -45.00000000	    -38.98032904	    -25.44626351	   2600.19787609	  -3701.95273009	    136.05345545	    179.07196040	   1085.47359639	     25.61602472	     10.90123897	    -19.39456918
